<svg width="20" height="24" viewBox="0 0 20 24" fill="none" xmlns="http://www.w3.org/2000/svg">
<path d="M0 0.985335V23.0153C0.00326533 23.1911 0.052824 23.363 0.143679 23.5135C0.234533 23.664 0.363471 23.7879 0.517493 23.8728C0.671515 23.9576 0.845176 24.0003 1.02096 23.9965C1.19675 23.9928 1.36845 23.9428 1.51875 23.8516L19.5287 12.8366C19.6726 12.7495 19.7916 12.6268 19.8741 12.4803C19.9567 12.3338 20.0001 12.1685 20.0001 12.0003C20.0001 11.8322 19.9567 11.6669 19.8741 11.5204C19.7916 11.3739 19.6726 11.2512 19.5287 11.1641L1.51875 0.149085C1.36845 0.0578445 1.19675 0.00784574 1.02096 0.00412967C0.845176 0.000413594 0.671515 0.0431119 0.517493 0.127919C0.363471 0.212726 0.234533 0.336643 0.143679 0.487177C0.052824 0.637711 0.00326533 0.809539 0 0.985335Z" fill="#F6F5F5"/>
</svg>
